<mxfile host="app.diagrams.net" modified="2021-06-30T20:26:54.745Z" agent="5.0 (Windows NT 10.0; Win64; x64) AppleWebKit/537.36 (KHTML, like Gecko) Chrome/91.0.4472.124 Safari/537.36" etag="X2M4hbbyOe5AkoqO4MEz" version="14.8.3" type="github">
  <diagram id="Ua1cqpYSYK374IMvsiaM" name="Page-1">
    <mxGraphModel dx="1102" dy="582" grid="1" gridSize="10" guides="1" tooltips="1" connect="1" arrows="1" fold="1" page="1" pageScale="1" pageWidth="827" pageHeight="1169" math="0" shadow="0">
      <root>
        <mxCell id="0" />
        <mxCell id="1" parent="0" />
        <mxCell id="rtjDzUVUUC-l_AeIAnf--1" value="" style="shape=parallelogram;perimeter=parallelogramPerimeter;whiteSpace=wrap;html=1;fixedSize=1;fillColor=#FFE6CC;gradientColor=none;" vertex="1" parent="1">
          <mxGeometry x="374" y="60" width="120" height="80" as="geometry" />
        </mxCell>
        <mxCell id="rtjDzUVUUC-l_AeIAnf--2" value="" style="rounded=0;whiteSpace=wrap;html=1;fillColor=#FFE6CC;gradientColor=none;" vertex="1" parent="1">
          <mxGeometry x="334" y="75" width="70" height="10" as="geometry" />
        </mxCell>
        <mxCell id="rtjDzUVUUC-l_AeIAnf--3" value="" style="rounded=0;whiteSpace=wrap;html=1;fillColor=#FFE6CC;gradientColor=none;" vertex="1" parent="1">
          <mxGeometry x="334" y="95" width="70" height="10" as="geometry" />
        </mxCell>
        <mxCell id="rtjDzUVUUC-l_AeIAnf--4" value="" style="rounded=0;whiteSpace=wrap;html=1;fillColor=#FFE6CC;gradientColor=none;" vertex="1" parent="1">
          <mxGeometry x="334" y="115" width="70" height="10" as="geometry" />
        </mxCell>
        <mxCell id="rtjDzUVUUC-l_AeIAnf--5" value="Restaurant.exe" style="text;html=1;strokeColor=none;fillColor=none;align=center;verticalAlign=middle;whiteSpace=wrap;rounded=0;" vertex="1" parent="1">
          <mxGeometry x="394" y="40" width="100" height="20" as="geometry" />
        </mxCell>
        <mxCell id="rtjDzUVUUC-l_AeIAnf--6" value="" style="whiteSpace=wrap;html=1;aspect=fixed;fillColor=#FFE6CC;gradientColor=none;" vertex="1" parent="1">
          <mxGeometry x="210" y="200" width="100" height="100" as="geometry" />
        </mxCell>
        <mxCell id="rtjDzUVUUC-l_AeIAnf--7" value="" style="ellipse;whiteSpace=wrap;html=1;fillColor=#FFE6CC;gradientColor=none;" vertex="1" parent="1">
          <mxGeometry x="160" y="210" width="90" height="10" as="geometry" />
        </mxCell>
        <mxCell id="rtjDzUVUUC-l_AeIAnf--8" value="" style="rounded=0;whiteSpace=wrap;html=1;fillColor=#FFE6CC;gradientColor=none;" vertex="1" parent="1">
          <mxGeometry x="160" y="245" width="90" height="10" as="geometry" />
        </mxCell>
        <mxCell id="rtjDzUVUUC-l_AeIAnf--9" value="" style="rounded=0;whiteSpace=wrap;html=1;fillColor=#FFE6CC;gradientColor=none;" vertex="1" parent="1">
          <mxGeometry x="160" y="280" width="90" height="10" as="geometry" />
        </mxCell>
        <mxCell id="rtjDzUVUUC-l_AeIAnf--10" value="App Screen" style="text;html=1;strokeColor=none;fillColor=none;align=center;verticalAlign=middle;whiteSpace=wrap;rounded=0;" vertex="1" parent="1">
          <mxGeometry x="210" y="180" width="100" height="20" as="geometry" />
        </mxCell>
        <mxCell id="rtjDzUVUUC-l_AeIAnf--11" value="" style="whiteSpace=wrap;html=1;aspect=fixed;fillColor=#FFE6CC;gradientColor=none;" vertex="1" parent="1">
          <mxGeometry x="570" y="200" width="100" height="100" as="geometry" />
        </mxCell>
        <mxCell id="rtjDzUVUUC-l_AeIAnf--12" value="" style="ellipse;whiteSpace=wrap;html=1;fillColor=#FFE6CC;gradientColor=none;" vertex="1" parent="1">
          <mxGeometry x="520" y="210" width="90" height="10" as="geometry" />
        </mxCell>
        <mxCell id="rtjDzUVUUC-l_AeIAnf--13" value="" style="rounded=0;whiteSpace=wrap;html=1;fillColor=#FFE6CC;gradientColor=none;" vertex="1" parent="1">
          <mxGeometry x="520" y="245" width="90" height="10" as="geometry" />
        </mxCell>
        <mxCell id="rtjDzUVUUC-l_AeIAnf--14" value="" style="rounded=0;whiteSpace=wrap;html=1;fillColor=#FFE6CC;gradientColor=none;" vertex="1" parent="1">
          <mxGeometry x="520" y="280" width="90" height="10" as="geometry" />
        </mxCell>
        <mxCell id="rtjDzUVUUC-l_AeIAnf--15" value="Payment Getway" style="text;html=1;strokeColor=none;fillColor=none;align=center;verticalAlign=middle;whiteSpace=wrap;rounded=0;" vertex="1" parent="1">
          <mxGeometry x="570" y="180" width="100" height="20" as="geometry" />
        </mxCell>
        <mxCell id="rtjDzUVUUC-l_AeIAnf--16" value="" style="whiteSpace=wrap;html=1;aspect=fixed;fillColor=#FFE6CC;gradientColor=none;" vertex="1" parent="1">
          <mxGeometry x="420" y="360" width="100" height="100" as="geometry" />
        </mxCell>
        <mxCell id="rtjDzUVUUC-l_AeIAnf--17" value="" style="ellipse;whiteSpace=wrap;html=1;fillColor=#FFE6CC;gradientColor=none;" vertex="1" parent="1">
          <mxGeometry x="370" y="370" width="90" height="10" as="geometry" />
        </mxCell>
        <mxCell id="rtjDzUVUUC-l_AeIAnf--18" value="" style="rounded=0;whiteSpace=wrap;html=1;fillColor=#FFE6CC;gradientColor=none;" vertex="1" parent="1">
          <mxGeometry x="370" y="405" width="90" height="10" as="geometry" />
        </mxCell>
        <mxCell id="rtjDzUVUUC-l_AeIAnf--19" value="" style="rounded=0;whiteSpace=wrap;html=1;fillColor=#FFE6CC;gradientColor=none;" vertex="1" parent="1">
          <mxGeometry x="370" y="440" width="90" height="10" as="geometry" />
        </mxCell>
        <mxCell id="rtjDzUVUUC-l_AeIAnf--20" value="Order" style="text;html=1;strokeColor=none;fillColor=none;align=center;verticalAlign=middle;whiteSpace=wrap;rounded=0;" vertex="1" parent="1">
          <mxGeometry x="420" y="340" width="100" height="20" as="geometry" />
        </mxCell>
        <mxCell id="rtjDzUVUUC-l_AeIAnf--21" value="" style="endArrow=classic;html=1;entryX=1;entryY=1;entryDx=0;entryDy=0;" edge="1" parent="1" target="rtjDzUVUUC-l_AeIAnf--10">
          <mxGeometry width="50" height="50" relative="1" as="geometry">
            <mxPoint x="374" y="140" as="sourcePoint" />
            <mxPoint x="324" y="190" as="targetPoint" />
          </mxGeometry>
        </mxCell>
        <mxCell id="rtjDzUVUUC-l_AeIAnf--22" value="" style="whiteSpace=wrap;html=1;aspect=fixed;gradientColor=none;fillColor=#808080;" vertex="1" parent="1">
          <mxGeometry x="60" y="350" width="100" height="100" as="geometry" />
        </mxCell>
        <mxCell id="rtjDzUVUUC-l_AeIAnf--23" value="" style="ellipse;whiteSpace=wrap;html=1;fillColor=#FFE6CC;gradientColor=none;" vertex="1" parent="1">
          <mxGeometry x="10" y="360" width="90" height="10" as="geometry" />
        </mxCell>
        <mxCell id="rtjDzUVUUC-l_AeIAnf--24" value="" style="rounded=0;whiteSpace=wrap;html=1;fillColor=#FFE6CC;gradientColor=none;" vertex="1" parent="1">
          <mxGeometry x="10" y="395" width="90" height="10" as="geometry" />
        </mxCell>
        <mxCell id="rtjDzUVUUC-l_AeIAnf--25" value="" style="rounded=0;whiteSpace=wrap;html=1;fillColor=#FFE6CC;gradientColor=none;" vertex="1" parent="1">
          <mxGeometry x="10" y="430" width="90" height="10" as="geometry" />
        </mxCell>
        <mxCell id="rtjDzUVUUC-l_AeIAnf--26" value="App Screen" style="text;html=1;strokeColor=none;fillColor=none;align=center;verticalAlign=middle;whiteSpace=wrap;rounded=0;" vertex="1" parent="1">
          <mxGeometry x="60" y="330" width="100" height="20" as="geometry" />
        </mxCell>
        <mxCell id="rtjDzUVUUC-l_AeIAnf--29" value="" style="endArrow=classic;html=1;entryX=0;entryY=1;entryDx=0;entryDy=0;exitX=1;exitY=1;exitDx=0;exitDy=0;" edge="1" parent="1" source="rtjDzUVUUC-l_AeIAnf--26" target="rtjDzUVUUC-l_AeIAnf--6">
          <mxGeometry width="50" height="50" relative="1" as="geometry">
            <mxPoint x="180" y="370" as="sourcePoint" />
            <mxPoint x="230" y="320" as="targetPoint" />
          </mxGeometry>
        </mxCell>
        <mxCell id="rtjDzUVUUC-l_AeIAnf--32" value="" style="endArrow=classic;html=1;entryX=0;entryY=1;entryDx=0;entryDy=0;" edge="1" parent="1" target="rtjDzUVUUC-l_AeIAnf--15">
          <mxGeometry width="50" height="50" relative="1" as="geometry">
            <mxPoint x="480" y="140" as="sourcePoint" />
            <mxPoint x="530" y="90" as="targetPoint" />
          </mxGeometry>
        </mxCell>
        <mxCell id="rtjDzUVUUC-l_AeIAnf--33" value="" style="whiteSpace=wrap;html=1;aspect=fixed;gradientColor=none;fillColor=#808080;" vertex="1" parent="1">
          <mxGeometry x="720" y="360" width="100" height="100" as="geometry" />
        </mxCell>
        <mxCell id="rtjDzUVUUC-l_AeIAnf--34" value="" style="ellipse;whiteSpace=wrap;html=1;fillColor=#FFE6CC;gradientColor=none;" vertex="1" parent="1">
          <mxGeometry x="670" y="370" width="90" height="10" as="geometry" />
        </mxCell>
        <mxCell id="rtjDzUVUUC-l_AeIAnf--35" value="" style="rounded=0;whiteSpace=wrap;html=1;fillColor=#FFE6CC;gradientColor=none;" vertex="1" parent="1">
          <mxGeometry x="670" y="405" width="90" height="10" as="geometry" />
        </mxCell>
        <mxCell id="rtjDzUVUUC-l_AeIAnf--36" value="" style="rounded=0;whiteSpace=wrap;html=1;fillColor=#FFE6CC;gradientColor=none;" vertex="1" parent="1">
          <mxGeometry x="670" y="440" width="90" height="10" as="geometry" />
        </mxCell>
        <mxCell id="rtjDzUVUUC-l_AeIAnf--37" value="Payment Getway" style="text;html=1;strokeColor=none;fillColor=none;align=center;verticalAlign=middle;whiteSpace=wrap;rounded=0;" vertex="1" parent="1">
          <mxGeometry x="720" y="340" width="100" height="20" as="geometry" />
        </mxCell>
        <mxCell id="rtjDzUVUUC-l_AeIAnf--38" value="" style="endArrow=classic;html=1;entryX=1;entryY=1;entryDx=0;entryDy=0;" edge="1" parent="1" target="rtjDzUVUUC-l_AeIAnf--11">
          <mxGeometry width="50" height="50" relative="1" as="geometry">
            <mxPoint x="720" y="360" as="sourcePoint" />
            <mxPoint x="770" y="310" as="targetPoint" />
          </mxGeometry>
        </mxCell>
        <mxCell id="rtjDzUVUUC-l_AeIAnf--40" value="" style="endArrow=classic;html=1;entryX=1;entryY=1;entryDx=0;entryDy=0;" edge="1" parent="1" target="rtjDzUVUUC-l_AeIAnf--20">
          <mxGeometry width="50" height="50" relative="1" as="geometry">
            <mxPoint x="570" y="300" as="sourcePoint" />
            <mxPoint x="520" y="350" as="targetPoint" />
          </mxGeometry>
        </mxCell>
        <mxCell id="rtjDzUVUUC-l_AeIAnf--41" value="" style="whiteSpace=wrap;html=1;aspect=fixed;gradientColor=none;fillColor=#808080;" vertex="1" parent="1">
          <mxGeometry x="260" y="520" width="100" height="100" as="geometry" />
        </mxCell>
        <mxCell id="rtjDzUVUUC-l_AeIAnf--42" value="" style="ellipse;whiteSpace=wrap;html=1;fillColor=#FFE6CC;gradientColor=none;" vertex="1" parent="1">
          <mxGeometry x="210" y="530" width="90" height="10" as="geometry" />
        </mxCell>
        <mxCell id="rtjDzUVUUC-l_AeIAnf--43" value="" style="rounded=0;whiteSpace=wrap;html=1;fillColor=#FFE6CC;gradientColor=none;" vertex="1" parent="1">
          <mxGeometry x="210" y="565" width="90" height="10" as="geometry" />
        </mxCell>
        <mxCell id="rtjDzUVUUC-l_AeIAnf--44" value="" style="rounded=0;whiteSpace=wrap;html=1;fillColor=#FFE6CC;gradientColor=none;" vertex="1" parent="1">
          <mxGeometry x="210" y="600" width="90" height="10" as="geometry" />
        </mxCell>
        <mxCell id="rtjDzUVUUC-l_AeIAnf--45" value="Order" style="text;html=1;strokeColor=none;fillColor=none;align=center;verticalAlign=middle;whiteSpace=wrap;rounded=0;" vertex="1" parent="1">
          <mxGeometry x="260" y="500" width="100" height="20" as="geometry" />
        </mxCell>
        <mxCell id="rtjDzUVUUC-l_AeIAnf--46" value="" style="endArrow=classic;html=1;entryX=0;entryY=1;entryDx=0;entryDy=0;" edge="1" parent="1" target="rtjDzUVUUC-l_AeIAnf--16">
          <mxGeometry width="50" height="50" relative="1" as="geometry">
            <mxPoint x="360" y="520" as="sourcePoint" />
            <mxPoint x="410" y="470" as="targetPoint" />
          </mxGeometry>
        </mxCell>
      </root>
    </mxGraphModel>
  </diagram>
</mxfile>
